<svg xmlns="http://www.w3.org/2000/svg" viewBox="0 0 32 32" fill="none">
  <rect width="32" height="32" rx="6" fill="url(#gradient)"/>
  <path d="M16 8C16.5523 8 17 8.44772 17 9V23C17 23.5523 16.5523 24 16 24C15.4477 24 15 23.5523 15 23V9C15 8.44772 15.4477 8 16 8Z" fill="white"/>
  <path d="M11 14C11.5523 14 12 14.4477 12 15V19C12 19.5523 11.5523 20 11 20C10.4477 20 10 19.5523 10 19V15C10 14.4477 10.4477 14 11 14Z" fill="white"/>
  <path d="M21 12C21.5523 12 22 12.4477 22 13V19C22 19.5523 21.5523 20 21 20C20.4477 20 20 19.5523 20 19V13C20 12.4477 20.4477 12 21 12Z" fill="white"/>
  <defs>
    <linearGradient id="gradient" x1="0" y1="0" x2="32" y2="32" gradientUnits="userSpaceOnUse">
      <stop offset="0%" stop-color="#0ea5e9"/>
      <stop offset="100%" stop-color="#0284c7"/>
    </linearGradient>
  </defs>
</svg>
